<?xml version="1.0" encoding="UTF-8" standalone="no"?>
<svg
   width="27"
   height="30"
   viewBox="0 0 27 30"
   version="1.1"
   id="svg910"
   sodipodi:docname="Vial_transparent.svg"
   inkscape:export-filename="/home/xyz/Downloads/Vial_transparent.png"
   inkscape:export-xdpi="1639.111083984375"
   inkscape:export-ydpi="1639.111083984375"
   inkscape:version="1.1.1 (3bf5ae0d25, 2021-09-20)"
   xmlns:inkscape="http://www.inkscape.org/namespaces/inkscape"
   xmlns:sodipodi="http://sodipodi.sourceforge.net/DTD/sodipodi-0.dtd"
   xmlns="http://www.w3.org/2000/svg"
   xmlns:svg="http://www.w3.org/2000/svg">
  <sodipodi:namedview
     id="namedview912"
     pagecolor="#ffffff"
     bordercolor="#666666"
     borderopacity="1.0"
     inkscape:pageshadow="2"
     inkscape:pageopacity="0.0"
     inkscape:pagecheckerboard="0"
     showgrid="false"
     inkscape:zoom="19.70000001039443"
     inkscape:cx="13.17258882553698"
     inkscape:cy="20.10152283203331"
     inkscape:window-width="2556"
     inkscape:window-height="1397"
     inkscape:window-x="0"
     inkscape:window-y="0"
     inkscape:window-maximized="1"
     inkscape:current-layer="g898" />
  <defs
     id="defs892">
    <linearGradient
       id="a7ae706d-57e4-4bdf-a39b-7c837f66b64e"
       x1="17.67"
       y1="25.72"
       x2="6.09"
       y2="5.66"
       gradientUnits="userSpaceOnUse">
      <stop
         offset="0.18"
         stop-color="#03045e"
         id="stop885" />
      <stop
         offset="0.48"
         stop-color="#0077b6"
         id="stop887" />
      <stop
         offset="0.85"
         stop-color="#b3e6ff"
         id="stop889" />
    </linearGradient>
  </defs>
  <g
     style="isolation: isolate"
     id="g908">
    <g
       id="f3b97df8-5622-4408-a862-909366cec093"
       data-name="Layer 2">
      <g
         id="a15fd50b-c9ad-459c-9b20-705d86b4e081"
         data-name="icon">
        <g
           id="g904">
          <g
             id="g898">
            <path
               d="M19.35,19.43l-1.69-2.32h0l-2.79-3.85V7h1.23V6.22H9.17V7H10.4v6.26L7.61,17.1h0L5.91,19.43A2.24,2.24,0,0,0,7.72,23h9.82a2.25,2.25,0,0,0,2.24-2.24A2.22,2.22,0,0,0,19.35,19.43Z"
               fill="url(#a7ae706d-57e4-4bdf-a39b-7c837f66b64e)"
               id="path896"
               style="stroke:#000000;stroke-opacity:1;stroke-width:0.188976378;stroke-miterlimit:4;stroke-dasharray:none" />
          </g>
          <path
             d="M5.47,20.75A2.26,2.26,0,0,0,7.71,23h2.81a8.46,8.46,0,0,1-1-3.46,6.23,6.23,0,0,1,2.13-4.1,3.16,3.16,0,0,0,1-2.25v-7H9.17V7h1.22v6.26L5.9,19.43A2.29,2.29,0,0,0,5.47,20.75Z"
             fill="#fff"
             opacity="0.3"
             style="mix-blend-mode: overlay"
             id="path900" />
          <path
             d="M19.78,20.75A2.25,2.25,0,0,1,17.54,23H7.72a2.24,2.24,0,0,1-1.81-3.56l1.68-2.32s1.94,1.63,5,0,4.87-.13,5,0h0l1.69,2.32A2.22,2.22,0,0,1,19.78,20.75Z"
             fill="#fff"
             opacity="0.3"
             style="mix-blend-mode: overlay"
             id="path902" />
        </g>
      </g>
    </g>
  </g>
</svg>
